<svg xmlns="http://www.w3.org/2000/svg" viewBox="0 0 760 96" role="img" aria-labelledby="title"><title>OptixLog Documents</title><g color="#fafafb" transform="translate(4 4) scale(0.2291667)"><path d="M 10.957031 -4.121094 L 112.167969 97.089844 L 98.0625 111.191406 L -3.148438 9.984375 Z M 10.957031 -4.121094 " transform="translate(45 47)" fill="currentColor"/>
<path d="M 111.820312 9.984375 L 10.613281 111.191406 L -3.492188 97.085938 L 97.71875 -4.121094 Z M 111.820312 9.984375 " transform="translate(230 47)" fill="currentColor"/>
<path d="M 97.582031 111.9375 L -3.628906 10.730469 L 10.476562 -3.375 L 111.683594 97.832031 Z M 97.582031 111.9375 " transform="translate(230 234)" fill="currentColor"/>
<path d="M -3.277344 97.699219 L 97.929688 -3.511719 L 112.035156 10.59375 L 10.824219 111.800781 Z M -3.277344 97.699219 " transform="translate(46 234)" fill="currentColor"/>
<path d="M 0.0273438 77.132812 L 0.0273438 0.460938 L 19.972656 0.460938 L 19.972656 77.132812 Z M 0.0273438 77.132812 " transform="translate(182 264)" fill="currentColor"/>
<path d="M 0.0273438 80.644531 L 0.0273438 0.625 L 19.972656 0.625 L 19.972656 80.644531 Z M 0.0273438 80.644531 " transform="translate(182 45)" fill="currentColor"/>
<path d="M 0.148438 0.527344 L 78.765625 0.527344 L 78.765625 20.472656 L 0.148438 20.472656 Z M 0.148438 0.527344 " transform="translate(260 183)" fill="currentColor"/>
<path d="M 0.0585938 0.527344 L 190.796875 0.527344 L 190.796875 20.472656 L 0.0585938 20.472656 Z M 0.0585938 0.527344 " transform="translate(8 183)" fill="currentColor"/>
<path d="M 0 0.425781 L 49.261719 0.425781 L 49.261719 49.691406 L 0 49.691406 Z M 0 0.425781 " transform="translate(167 169)" fill="currentColor"/></g><text x="112" y="61" fill="#fafafb" font-family="Poppins, Inter, Arial, sans-serif" font-size="38" font-weight="600" letter-spacing="-1">OptixLog Documents</text></svg>