<svg xmlns="http://www.w3.org/2000/svg" viewBox="0 0 384 384" fill="none">
<path fill="#1a1a1a" d="M 384.00 192.00 L 383.95 235.22 L 383.79 250.79 L 383.53 262.37 L 383.17 271.92 L 382.70 280.18 L 382.12 287.53 L 381.44 294.18 L 380.66 300.28 L 379.77 305.93 L 378.76 311.18 L 377.66 316.10 L 376.44 320.72 L 375.11 325.08 L 373.67 329.20 L 372.11 333.09 L 370.44 336.79 L 368.65 340.29 L 366.74 343.61 L 364.71 346.77 L 362.55 349.76 L 360.27 352.60 L 357.85 355.30 L 355.30 357.85 L 352.60 360.27 L 349.76 362.55 L 346.77 364.71 L 343.61 366.74 L 340.29 368.65 L 336.79 370.44 L 333.09 372.11 L 329.20 373.67 L 325.08 375.11 L 320.72 376.44 L 316.10 377.66 L 311.18 378.76 L 305.93 379.77 L 300.28 380.66 L 294.18 381.44 L 287.53 382.12 L 280.18 382.70 L 271.92 383.17 L 262.37 383.53 L 250.79 383.79 L 235.22 383.95 L 192.00 384.00 L 148.78 383.95 L 133.21 383.79 L 121.63 383.53 L 112.08 383.17 L 103.82 382.70 L 96.47 382.12 L 89.82 381.44 L 83.72 380.66 L 78.07 379.77 L 72.82 378.76 L 67.90 377.66 L 63.28 376.44 L 58.92 375.11 L 54.80 373.67 L 50.91 372.11 L 47.21 370.44 L 43.71 368.65 L 40.39 366.74 L 37.23 364.71 L 34.24 362.55 L 31.40 360.27 L 28.70 357.85 L 26.15 355.30 L 23.73 352.60 L 21.45 349.76 L 19.29 346.77 L 17.26 343.61 L 15.35 340.29 L 13.56 336.79 L 11.89 333.09 L 10.33 329.20 L 8.89 325.08 L 7.56 320.72 L 6.34 316.10 L 5.24 311.18 L 4.23 305.93 L 3.34 300.28 L 2.56 294.18 L 1.88 287.53 L 1.30 280.18 L 0.83 271.92 L 0.47 262.37 L 0.21 250.79 L 0.05 235.22 L 0.00 192.00 L 0.05 148.78 L 0.21 133.21 L 0.47 121.63 L 0.83 112.08 L 1.30 103.82 L 1.88 96.47 L 2.56 89.82 L 3.34 83.72 L 4.23 78.07 L 5.24 72.82 L 6.34 67.90 L 7.56 63.28 L 8.89 58.92 L 10.33 54.80 L 11.89 50.91 L 13.56 47.21 L 15.35 43.71 L 17.26 40.39 L 19.29 37.23 L 21.45 34.24 L 23.73 31.40 L 26.15 28.70 L 28.70 26.15 L 31.40 23.73 L 34.24 21.45 L 37.23 19.29 L 40.39 17.26 L 43.71 15.35 L 47.21 13.56 L 50.91 11.89 L 54.80 10.33 L 58.92 8.89 L 63.28 7.56 L 67.90 6.34 L 72.82 5.24 L 78.07 4.23 L 83.72 3.34 L 89.82 2.56 L 96.47 1.88 L 103.82 1.30 L 112.08 0.83 L 121.63 0.47 L 133.21 0.21 L 148.78 0.05 L 192.00 0.00 L 235.22 0.05 L 250.79 0.21 L 262.37 0.47 L 271.92 0.83 L 280.18 1.30 L 287.53 1.88 L 294.18 2.56 L 300.28 3.34 L 305.93 4.23 L 311.18 5.24 L 316.10 6.34 L 320.72 7.56 L 325.08 8.89 L 329.20 10.33 L 333.09 11.89 L 336.79 13.56 L 340.29 15.35 L 343.61 17.26 L 346.77 19.29 L 349.76 21.45 L 352.60 23.73 L 355.30 26.15 L 357.85 28.70 L 360.27 31.40 L 362.55 34.24 L 364.71 37.23 L 366.74 40.39 L 368.65 43.71 L 370.44 47.21 L 372.11 50.91 L 373.67 54.80 L 375.11 58.92 L 376.44 63.28 L 377.66 67.90 L 378.76 72.82 L 379.77 78.07 L 380.66 83.72 L 381.44 89.82 L 382.12 96.47 L 382.70 103.82 L 383.17 112.08 L 383.53 121.63 L 383.79 133.21 L 383.95 148.78 L 384.00 192.00 Z"/>
<g transform="translate(44.44 42.57) scale(0.77)" fill="#1ac2b0">
<path d="M 63.011719 49.929688 L 150.128906 137.050781 C 152 138.921875 153.050781 141.457031 153.050781 144.101562 C 153.050781 146.75 152 149.285156 150.128906 151.15625 C 148.257812 153.027344 145.722656 154.078125 143.078125 154.078125 C 140.433594 154.078125 137.894531 153.027344 136.023438 151.15625 L 48.90625 64.035156 C 47.035156 62.164062 45.984375 59.628906 45.984375 56.984375 C 45.984375 54.339844 47.035156 51.800781 48.90625 49.929688 C 50.777344 48.0625 53.3125 47.011719 55.957031 47.011719 C 58.601562 47.011719 61.140625 48.0625 63.011719 49.929688 Z"/>
<path d="M 334.769531 64.035156 L 247.648438 151.15625 C 245.777344 153.023438 243.242188 154.074219 240.597656 154.074219 C 237.953125 154.074219 235.414062 153.023438 233.546875 151.15625 C 231.675781 149.285156 230.625 146.746094 230.625 144.101562 C 230.625 141.457031 231.675781 138.921875 233.546875 137.050781 L 320.664062 49.929688 C 322.535156 48.058594 325.070312 47.007812 327.71875 47.007812 C 330.363281 47.007812 332.898438 48.058594 334.769531 49.929688 C 336.640625 51.800781 337.691406 54.335938 337.691406 56.984375 C 337.691406 59.628906 336.640625 62.164062 334.769531 64.035156 Z"/>
<path d="M 320.527344 338.886719 L 233.410156 251.765625 C 231.539062 249.894531 230.488281 247.359375 230.488281 244.714844 C 230.488281 242.070312 231.539062 239.53125 233.410156 237.660156 C 235.28125 235.792969 237.816406 234.742188 240.460938 234.742188 C 243.105469 234.742188 245.644531 235.792969 247.511719 237.660156 L 334.632812 324.78125 C 336.503906 326.652344 337.554688 329.1875 337.554688 331.832031 C 337.554688 334.480469 336.503906 337.015625 334.632812 338.886719 C 332.761719 340.757812 330.226562 341.808594 327.582031 341.808594 C 324.9375 341.808594 322.398438 340.757812 320.527344 338.886719 Z"/>
<path d="M 49.773438 324.644531 L 136.894531 237.527344 C 138.765625 235.65625 141.300781 234.605469 143.945312 234.605469 C 146.589844 234.605469 149.128906 235.65625 150.996094 237.527344 C 152.867188 239.398438 153.917969 241.933594 153.917969 244.578125 C 153.917969 247.222656 152.867188 249.761719 150.996094 251.628906 L 63.878906 338.75 C 62.007812 340.621094 59.472656 341.671875 56.824219 341.671875 C 54.179688 341.671875 51.644531 340.621094 49.773438 338.75 C 47.902344 336.878906 46.851562 334.34375 46.851562 331.699219 C 46.851562 329.054688 47.902344 326.515625 49.773438 324.644531 Z"/>
<path d="M 182.027344 331.15625 L 182.027344 274.460938 C 182.027344 271.816406 183.078125 269.277344 184.945312 267.40625 C 186.816406 265.539062 189.355469 264.488281 192 264.488281 C 194.644531 264.488281 197.179688 265.539062 199.050781 267.40625 C 200.921875 269.277344 201.972656 271.816406 201.972656 274.460938 L 201.972656 331.15625 C 201.972656 333.804688 200.921875 336.339844 199.050781 338.210938 C 197.179688 340.082031 194.644531 341.132812 192 341.132812 C 189.355469 341.132812 186.816406 340.082031 184.945312 338.210938 C 183.078125 336.339844 182.027344 333.804688 182.027344 331.15625 Z"/>
<path d="M 182.027344 115.671875 L 182.027344 55.578125 C 182.027344 52.933594 183.078125 50.394531 184.945312 48.523438 C 186.816406 46.65625 189.355469 45.605469 192 45.605469 C 194.644531 45.605469 197.179688 46.65625 199.050781 48.523438 C 200.921875 50.394531 201.972656 52.933594 201.972656 55.578125 L 201.972656 115.671875 C 201.972656 118.316406 200.921875 120.855469 199.050781 122.726562 C 197.179688 124.59375 194.644531 125.644531 192 125.644531 C 189.355469 125.644531 186.816406 124.59375 184.945312 122.726562 C 183.078125 120.855469 182.027344 118.316406 182.027344 115.671875 Z"/>
<path d="M 270.121094 183.527344 L 328.761719 183.527344 C 331.40625 183.527344 333.945312 184.578125 335.8125 186.449219 C 337.683594 188.316406 338.734375 190.855469 338.734375 193.5 C 338.734375 196.144531 337.683594 198.683594 335.8125 200.550781 C 333.945312 202.421875 331.40625 203.472656 328.761719 203.472656 L 270.121094 203.472656 C 267.476562 203.472656 264.941406 202.421875 263.070312 200.550781 C 261.199219 198.683594 260.148438 196.144531 260.148438 193.5 C 260.148438 190.855469 261.199219 188.316406 263.070312 186.449219 C 264.941406 184.578125 267.476562 183.527344 270.121094 183.527344 Z"/>
<path d="M 18.03125 183.527344 L 188.8125 183.527344 C 191.457031 183.527344 193.996094 184.578125 195.863281 186.449219 C 197.734375 188.316406 198.785156 190.855469 198.785156 193.5 C 198.785156 196.144531 197.734375 198.683594 195.863281 200.550781 C 193.996094 202.421875 191.457031 203.472656 188.8125 203.472656 L 18.03125 203.472656 C 15.386719 203.472656 12.851562 202.421875 10.980469 200.550781 C 9.109375 198.683594 8.058594 196.144531 8.058594 193.5 C 8.058594 190.855469 9.109375 188.316406 10.980469 186.449219 C 12.851562 184.578125 15.386719 183.527344 18.03125 183.527344 Z"/>
<path d="M 191.628906 169.425781 C 178.027344 169.425781 167 180.453125 167 194.058594 C 167 207.660156 178.027344 218.691406 191.628906 218.691406 C 205.234375 218.691406 216.261719 207.660156 216.261719 194.058594 C 216.261719 180.453125 205.234375 169.425781 191.628906 169.425781 Z"/>
</g>
</svg>
